<svg width="200" height="35" viewBox="0 0 200 35" fill="none" xmlns="http://www.w3.org/2000/svg">
<path d="M161.062 21.0444H145.851V12.7612C145.851 12.1648 146.371 11.6347 146.956 11.6347H162.167V19.9842C162.232 20.5806 161.712 21.0444 161.062 21.0444ZM164.247 6.06836H149.751C148.841 6.06836 147.996 6.46595 147.346 7.12861L141.366 13.3576C140.781 14.0203 140.391 14.8817 140.391 15.7432V33.2374C140.391 33.5687 140.651 33.7675 140.911 33.7675H145.266C145.591 33.7675 145.786 33.5024 145.786 33.2374V26.2795H157.032C157.617 26.2795 158.137 26.0144 158.592 25.6168L161.192 22.9662C161.517 22.6348 162.167 22.8336 162.167 23.3638V33.1711C162.167 33.5024 162.427 33.7012 162.687 33.7012H167.043C167.368 33.7012 167.563 33.4362 167.563 33.1711V9.44792C167.628 7.59247 166.133 6.06836 164.247 6.06836Z" fill="#0F53A9"/>
<path d="M98.1361 12.6949V27.0746C98.1361 27.671 97.681 28.2012 97.031 28.2012H82.9249C82.3398 28.2012 81.8198 27.7373 81.8198 27.0746V12.6949C81.8198 12.0986 82.2748 11.5684 82.9249 11.5684H97.031C97.681 11.6347 98.1361 12.0986 98.1361 12.6949ZM97.291 6.06836H85.6551C84.81 6.06836 83.965 6.39969 83.3149 7.06235L77.3995 12.8937C76.7494 13.5564 76.3594 14.4179 76.3594 15.3456V27.3397C76.3594 27.9361 76.6194 28.4662 77.0094 28.9301L81.1697 33.1711C81.5598 33.5687 82.1448 33.8338 82.7299 33.8338H94.3008C95.2108 33.8338 96.0559 33.5024 96.6409 32.8398L102.556 26.8096C103.206 26.1469 103.531 25.2855 103.531 24.424V12.4961C103.531 11.8998 103.271 11.3696 102.881 10.9058L98.7211 6.66475C98.3961 6.26716 97.876 6.06836 97.291 6.06836Z" fill="#0F53A9"/>
<path d="M74.4763 6.06836H48.3443C48.0192 6.06836 47.8242 6.33342 47.8242 6.59849V10.707C47.8242 11.0383 48.0842 11.2371 48.3443 11.2371H58.6801V33.1711C58.6801 33.5024 58.9401 33.7012 59.2001 33.7012H63.5554C63.8805 33.7012 64.0755 33.4362 64.0755 33.1711V11.2371H74.4113C74.7363 11.2371 74.9313 10.972 74.9313 10.707V6.59849C74.9963 6.33342 74.7363 6.06836 74.4763 6.06836Z" fill="#0F53A9"/>
<path d="M194.603 19.9179C194.603 20.5143 194.148 21.0444 193.498 21.0444H178.287V12.6949C178.287 12.0986 178.742 11.5684 179.392 11.5684H194.603V19.9179ZM199.999 9.38165C199.999 7.52621 198.569 6.06836 196.749 6.06836H179.132C178.547 6.06836 178.027 6.33342 177.572 6.73102L173.412 10.972C173.022 11.3696 172.762 11.966 172.762 12.5624V33.2374C172.762 33.5687 173.022 33.7675 173.282 33.7675H177.637C177.962 33.7675 178.157 33.5024 178.157 33.2374V26.2795H191.158C191.873 26.2795 192.523 26.0144 192.978 25.4843L199.284 18.9239C199.674 18.5263 199.934 17.93 199.934 17.3336L199.999 9.38165Z" fill="#0F53A9"/>
<path d="M135.061 6.06836H130.706C130.381 6.06836 130.186 6.33342 130.186 6.59849V17.3998H118.94C118.355 17.3998 117.835 17.6649 117.38 18.0625L114.845 20.3155C114.52 20.6469 113.934 20.4481 113.934 19.9179V6.59849C113.934 6.26716 113.674 6.06836 113.414 6.06836H109.059C108.734 6.06836 108.539 6.33342 108.539 6.59849V33.1711C108.539 33.5024 108.799 33.7012 109.059 33.7012H113.414C113.739 33.7012 113.934 33.4362 113.934 33.1711V22.7011H130.186V33.2374C130.186 33.5687 130.446 33.7675 130.706 33.7675H135.061C135.386 33.7675 135.581 33.5024 135.581 33.2374V6.59849C135.581 6.33342 135.321 6.06836 135.061 6.06836Z" fill="#0F53A9"/>
<path d="M33.5273 21.7732C33.3873 21.5643 31.708 20.6593 30.4484 19.6151C28.4892 18.014 27.7195 16.8305 27.7195 16.8305C27.7195 16.8305 27.5795 15.299 27.5096 13.4194C28.2093 11.4006 28.7691 10.0083 28.7691 10.0083L32.3377 10.2867C32.4777 10.2867 32.5476 10.2867 32.6176 10.2171L33.0375 9.86905C33.1074 9.79944 33.1774 9.66021 33.1774 9.59059L33.3174 8.40714C33.3174 8.33752 33.2474 8.33752 33.2474 8.40714L32.4077 9.52098C31.2881 9.38175 30.1686 7.91984 29.8887 6.59715C29.8887 6.52754 29.8886 6.45792 29.9586 6.3883C30.0286 6.31869 30.1686 6.38831 30.2385 6.45792C30.8683 7.85022 31.2181 8.12868 31.2181 8.12868C31.4981 7.98945 31.638 7.91984 31.7779 7.78061C31.8479 7.71099 31.9879 7.7806 31.9179 7.91983C31.8479 8.05906 31.7779 8.33752 31.638 8.54637C31.8479 8.82483 32.1978 8.96406 32.1978 8.96406L32.6176 8.40714C32.2678 7.7806 32.1978 7.2933 32.1978 6.10984C32.4777 4.996 32.8276 4.23024 33.2474 3.74294L33.1774 3.25564C32.8975 3.18602 32.5476 3.32525 32.5476 3.32525C32.5476 3.6037 32.5476 3.88217 32.5476 4.0214C32.5476 4.09101 32.4077 4.16062 32.3377 4.09101C32.1978 3.95178 32.0579 3.74293 31.9179 3.6037C31.4981 3.81255 30.6584 4.996 30.3085 5.34408C30.2385 5.41369 30.0986 5.41369 30.0286 5.34408C29.9586 5.27446 29.9586 5.13523 29.9586 5.06562C30.2385 4.71754 31.0782 3.60371 31.8479 3.11641C32.8276 2.48987 33.7372 2.76833 33.7372 2.76833L33.9471 4.23024C33.9471 4.29985 34.0871 4.29985 34.0871 4.23024L34.4369 2.83795C34.5069 2.69872 34.5069 2.48987 34.5069 2.35064C34.5069 2.07218 34.4369 1.79373 34.297 1.58488L34.0171 1.09758L33.8072 0.679885C33.8072 0.540655 33.6672 0.471044 33.5973 0.471044L33.3874 0.401429C33.3174 0.331813 33.1774 0.331813 33.0375 0.401429L30.3785 1.72411C30.3085 1.79373 30.2385 1.86334 30.1686 1.93296L29.3989 2.90756C29.3289 2.97718 29.3289 2.97718 29.2589 2.90756L29.1189 2.69872C29.1189 2.6291 29.1189 2.6291 29.1189 2.6291L29.4688 2.07218C29.5388 2.00257 29.5388 1.93296 29.4688 1.86334C29.3989 1.79373 29.1889 1.72411 28.909 1.6545L28.6991 1.51527C28.6991 1.51527 28.6291 1.51527 28.6291 1.44565V1.23681C28.6291 1.16719 28.6291 1.16719 28.6991 1.16719C28.6991 1.16719 28.7691 1.16719 28.979 1.09758C29.6787 1.02796 30.0986 1.23681 30.0986 1.23681L30.8683 0.88873C30.8683 0.88873 30.0286 0.122968 29.8187 0.122968C28.979 0.0533532 26.5999 0.122968 25.8302 0.262198C25.6903 0.262198 25.4803 0.331813 25.2704 0.471044C24.8506 0.819115 24.0109 1.51527 23.661 1.86334C23.5911 1.93296 23.4511 1.93296 23.4511 1.86334C23.3812 1.79373 23.3812 1.72411 23.4511 1.6545C23.661 1.37604 23.9409 1.09758 24.3608 0.61027C24.4307 0.540655 24.3608 0.471044 24.3608 0.471044C24.0109 0.262198 23.661 0.122968 23.5211 0.0533532C23.2412 -0.0858764 21.8417 0.0533533 21.7018 0.401429C21.4919 0.958345 21.7018 2.00257 21.8417 2.48987C21.8417 2.48987 20.7222 3.6037 19.7425 4.16062C19.3227 4.36947 17.7833 3.81255 16.7337 4.57831C15.754 5.34408 14.1447 6.59715 13.5849 7.08446C13.4449 7.22369 13.305 7.43253 13.305 7.64138L12.8851 10.5652C12.8851 10.774 12.5353 10.774 12.4653 10.5652C12.3953 10.0083 12.2554 9.38175 12.1854 8.96406C12.1854 8.82483 12.0455 8.75522 11.9055 8.82483C10.506 9.5906 5.32801 12.3056 2.66902 14.8117C1.33953 16.0648 0.0800075 21.4947 0.0100342 22.4693C-0.199886 25.602 2.94892 33.3292 3.36875 34.7912C3.36875 34.9304 3.5087 35 3.64865 35H8.96663C9.10658 35 9.24651 34.8608 9.24651 34.7215C9.17655 34.2342 8.96663 33.3292 8.89667 33.1204C8.68671 32.8419 7.2173 31.38 7.2173 31.38L8.75671 26.2285L12.8152 25.0451C12.8851 27.8297 13.165 31.1016 13.235 31.5192C13.305 31.8673 14.9144 34.9304 14.9144 34.9304H21.3519C21.5618 34.9304 21.6318 34.7215 21.6318 34.5823C21.4219 33.9558 20.9321 32.5635 20.6522 32.4242C20.3023 32.2154 17.7133 31.4496 17.7133 31.4496C17.7133 31.4496 17.9232 30.4054 18.2731 29.1523C19.1827 25.7412 20.6522 21.2859 20.6522 21.2859C20.6522 21.2859 22.9613 18.919 23.2412 18.6405C23.4511 18.362 23.801 18.7101 23.661 18.919C22.8913 20.1024 21.8417 21.4947 21.8417 21.4947C21.8417 21.4947 22.8913 22.7478 23.1712 22.8174C23.3812 22.887 27.5096 23.3743 30.2385 23.6528C31.1482 25.1147 31.8479 26.0893 32.3377 26.3678C32.5476 26.507 34.5069 26.7855 35.2766 26.9247C35.4865 26.9247 35.6964 26.8551 35.7664 26.7158L36.1863 26.2285C36.1163 26.3678 33.7372 21.982 33.5273 21.7732Z" fill="#0F53A9"/>
</svg>
